<svg width="20" height="17" viewBox="0 0 20 17" fill="none" xmlns="http://www.w3.org/2000/svg">
<path d="M10 17C9.71527 17 9.44077 16.9015 9.22684 16.7224C8.41888 16.0475 7.63992 15.4132 6.95267 14.8536L6.94916 14.8507C4.93423 13.2102 3.19427 11.7935 1.98364 10.3979C0.630341 8.83778 0 7.35852 0 5.74252C0 4.17244 0.563507 2.72395 1.58661 1.66367C2.62192 0.590857 4.04251 0 5.58716 0C6.74164 0 7.79892 0.348712 8.72955 1.03637C9.19922 1.38348 9.62494 1.80829 10 2.3038C10.3752 1.80829 10.8008 1.38348 11.2706 1.03637C12.2012 0.348712 13.2585 0 14.413 0C15.9575 0 17.3782 0.590857 18.4135 1.66367C19.4366 2.72395 20 4.17244 20 5.74252C20 7.35852 19.3698 8.83778 18.0165 10.3978C16.8059 11.7935 15.0661 13.2101 13.0515 14.8504C12.363 15.4108 11.5828 16.0461 10.773 16.7227C10.5592 16.9015 10.2846 17 10 17ZM5.58716 1.11932C4.37363 1.11932 3.25882 1.58203 2.44781Z" fill="#FF6767" />
</svg>
